<svg xmlns="http://www.w3.org/2000/svg" version="1.1" xmlns:xlink="http://www.w3.org/1999/xlink" xmlns:svgjs="http://svgjs.dev/svgjs" width="1000" height="1000" viewBox="0 0 1000 1000"><rect width="1000" height="1000" fill="#6f61c0"></rect><g transform="matrix(0.7,0,0,0.7,149.57575757575756,446.7571416181527)"><svg viewBox="0 0 396 60" data-background-color="#6f61c0" preserveAspectRatio="xMidYMid meet" height="151" width="1000" xmlns="http://www.w3.org/2000/svg" xmlns:xlink="http://www.w3.org/1999/xlink"><g id="tight-bounds" transform="matrix(1,0,0,1,0.2400000000000091,0.22300381183387685)"><svg viewBox="0 0 395.52 59.55399237633226" height="59.55399237633226" width="395.52"><g><svg viewBox="0 0 462.37528391936445 69.6204847631935" height="59.55399237633226" width="395.52"><g><rect width="4.543015314243897" height="60.451940460081175" x="407.41271024671175" y="4.5842721515561635" fill="#ffffff" opacity="1" stroke-width="0" stroke="transparent" fill-opacity="1" class="rect-r$-0" data-fill-palette-color="primary" rx="1%" id="r$-0" data-palette-color="#ffffff"></rect></g><g transform="matrix(1,0,0,1,0,9.621933856562926)"><svg viewBox="0 0 395.52 50.37661705006765" height="50.37661705006765" width="395.52"><g id="textblocktransform"><svg viewBox="0 0 395.52 50.37661705006765" height="50.37661705006765" width="395.52" id="textblock"><g><svg viewBox="0 0 395.52 50.37661705006765" height="50.37661705006765" width="395.52"><g transform="matrix(1,0,0,1,0,0)"><svg width="395.52" viewBox="3.45 -37.35 295.58 37.65" height="50.37661705006765" data-palette-color="#ffffff"><path d="M10.9 0L3.45 0 3.45-37 9.4-37 24.9-12.6 24.9-37 32.3-37 32.3 0 26.35 0 10.9-24.4 10.9 0ZM52.35 0.25L52.35 0.25Q49.3 0.25 46.65-0.28 44-0.8 42.02-2.13 40.05-3.45 38.97-5.83 37.9-8.2 37.9-11.9L37.9-11.9 37.9-37 45.3-37 45.3-11.95Q45.3-9.9 46.12-8.7 46.95-7.5 48.52-6.95 50.1-6.4 52.35-6.4L52.35-6.4Q54.55-6.4 56.12-6.95 57.7-7.5 58.52-8.7 59.35-9.9 59.35-11.95L59.35-11.95 59.35-37 66.8-37 66.8-11.9Q66.8-8.2 65.7-5.83 64.6-3.45 62.65-2.13 60.7-0.8 58.07-0.28 55.45 0.25 52.35 0.25ZM87.84 0L80.45 0 80.45-30.35 70.3-30.35 70.3-37 98.05-37 98.05-30.35 87.84-30.35 87.84 0ZM109.44 0L102.04 0 102.04-37 117.34-37Q119.54-37 121.44-36.48 123.34-35.95 124.79-34.65 126.24-33.35 127.07-31.05 127.89-28.75 127.89-25.15L127.89-25.15Q127.89-22.6 127.39-20.8 126.89-19 126.07-17.85 125.24-16.7 124.19-16 123.14-15.3 122.04-14.85L122.04-14.85 128.94 0 121.39 0 115.44-13.7Q114.84-13.7 114.07-13.73 113.29-13.75 112.49-13.75 111.69-13.75 110.89-13.75 110.09-13.75 109.44-13.8L109.44-13.8 109.44 0ZM109.44-30.35L109.44-19.65 116.04-19.65Q117.04-19.65 117.84-19.9 118.64-20.15 119.24-20.78 119.84-21.4 120.17-22.45 120.49-23.5 120.49-25.15L120.49-25.15Q120.49-26.7 120.17-27.73 119.84-28.75 119.24-29.33 118.64-29.9 117.84-30.13 117.04-30.35 116.04-30.35L116.04-30.35 109.44-30.35ZM140.79 0L133.39 0 133.39-37 140.79-37 140.79 0ZM162.34 0L154.94 0 154.94-30.35 144.79-30.35 144.79-37 172.54-37 172.54-30.35 162.34-30.35 162.34 0ZM183.94 0L176.53 0 176.53-37 191.84-37Q194.04-37 195.94-36.48 197.84-35.95 199.29-34.65 200.74-33.35 201.56-31.05 202.39-28.75 202.39-25.15L202.39-25.15Q202.39-22.6 201.89-20.8 201.39-19 200.56-17.85 199.74-16.7 198.69-16 197.64-15.3 196.54-14.85L196.54-14.85 203.44 0 195.89 0 189.94-13.7Q189.34-13.7 188.56-13.73 187.78-13.75 186.99-13.75 186.19-13.75 185.39-13.75 184.59-13.75 183.94-13.8L183.94-13.8 183.94 0ZM183.94-30.35L183.94-19.65 190.53-19.65Q191.53-19.65 192.34-19.9 193.14-20.15 193.74-20.78 194.34-21.4 194.66-22.45 194.99-23.5 194.99-25.15L194.99-25.15Q194.99-26.7 194.66-27.73 194.34-28.75 193.74-29.33 193.14-29.9 192.34-30.13 191.53-30.35 190.53-30.35L190.53-30.35 183.94-30.35ZM213.13 0L205.53 0 217.13-37 226.48-37 238.08 0 230.38 0 228.03-7.75 215.43-7.75 213.13 0ZM221.73-30.65L217.18-14.4 226.28-14.4 221.73-30.65ZM254.08 0.3L254.08 0.3Q250.83 0.3 248.36-0.45 245.88-1.2 244.16-3.2 242.43-5.2 241.56-8.93 240.68-12.65 240.68-18.6L240.68-18.6Q240.68-24.35 241.61-28.03 242.53-31.7 244.28-33.73 246.03-35.75 248.53-36.55 251.03-37.35 254.18-37.35L254.18-37.35Q256.68-37.35 258.86-37.08 261.03-36.8 262.78-36.43 264.53-36.05 265.73-35.6L265.73-35.6 265.73-29.85Q264.83-30.05 263.31-30.25 261.78-30.45 259.83-30.58 257.88-30.7 255.73-30.7L255.73-30.7Q253.63-30.7 252.16-30.23 250.68-29.75 249.81-28.48 248.93-27.2 248.5-24.8 248.08-22.4 248.08-18.55L248.08-18.55Q248.08-14.85 248.46-12.45 248.83-10.05 249.68-8.72 250.53-7.4 252-6.88 253.48-6.35 255.73-6.35L255.73-6.35Q259.53-6.35 261.91-6.5 264.28-6.65 265.73-6.85L265.73-6.85 265.73-1.15Q264.38-0.7 262.63-0.38 260.88-0.05 258.78 0.13 256.68 0.3 254.08 0.3ZM278.33 0L270.93 0 270.93-37 278.33-37 278.33-21.7 283.23-21.7 290.83-37 298.73-37 289.13-18.4 299.03 0 291.13 0 283.23-15 278.33-15 278.33 0Z" opacity="1" transform="matrix(1,0,0,1,0,0)" fill="#ffffff" class="wordmark-text-0" data-fill-palette-color="primary" id="text-0"></path></svg></g></svg></g></svg></g></svg></g><g transform="matrix(1,0,0,1,423.84843580766744,0)"><svg viewBox="0 0 38.526848111697014 69.6204847631935" height="69.6204847631935" width="38.526848111697014"><g><svg xmlns="http://www.w3.org/2000/svg" xmlns:xlink="http://www.w3.org/1999/xlink" version="1.1" x="0" y="0" viewBox="27.775 9.837999999999997 44.449999999999996 80.324" enable-background="new 0 0 100 100" xml:space="preserve" height="69.6204847631935" width="38.526848111697014" class="icon-icon-0" data-fill-palette-color="accent" id="icon-0"><path d="M69.25 30.54h-4.375v-4.777h1.05c1.646 0 2.976-1.33 2.976-2.975v-9.975c0-1.645-1.33-2.975-2.976-2.975h-31.85c-1.645 0-2.975 1.33-2.975 2.975v9.975c0 1.645 1.33 2.975 2.975 2.975h1.05v4.777H30.75c-1.645 0-2.975 1.33-2.975 2.975v53.672c0 1.646 1.33 2.975 2.975 2.975h38.5c1.646 0 2.975-1.329 2.975-2.975V33.515C72.225 31.888 70.896 30.54 69.25 30.54zM32.85 22.788v-9.975c0-0.683 0.542-1.225 1.225-1.225h31.85c0.683 0 1.226 0.542 1.226 1.225v9.975c0 0.683-0.543 1.225-1.226 1.225h-31.85C33.393 24.013 32.85 23.47 32.85 22.788zM36.875 25.763h26.25v4.777h-26.25V25.763zM30.75 32.29h38.5c0.683 0 1.225 0.542 1.225 1.225v8.295h-40.95v-8.295C29.525 32.85 30.067 32.29 30.75 32.29zM70.475 43.56v31.115h-40.95V43.56H70.475zM69.25 88.412h-38.5c-0.683 0-1.225-0.542-1.225-1.225V76.425h40.95v10.763C70.475 87.87 69.933 88.412 69.25 88.412z" fill="#ffffff" data-fill-palette-color="accent"></path><polygon points="51.33,61.2 43.263,69.268 44.505,70.51 55.548,59.45 46.623,59.45 55.354,50.735 54.112,49.492 42.405,61.2 " fill="#ffffff" data-fill-palette-color="accent"></polygon></svg></g></svg></g></svg></g><defs></defs></svg><rect width="395.52" height="59.55399237633226" fill="none" stroke="none" visibility="hidden"></rect></g></svg></g></svg>